<?xml version="1.0" encoding="UTF-8"?>
<svg version="1.1" xmlns="http://www.w3.org/2000/svg" width="512" height="512">
<path d="M0 0 C29.28583737 17.73704821 48.80893804 50.21807825 57 82.703125 C65.17263787 117.05847306 60.30430357 156.0481509 41.85839844 186.43798828 C36.93522583 194.20879333 31.1158336 201.14963354 25 208 C23.82050781 209.32837891 23.82050781 209.32837891 22.6171875 210.68359375 C21.13686115 212.33671081 19.64998828 213.98399175 18.15625 215.625 C16.74789922 217.17622694 15.35144165 218.73835873 13.96875 220.3125 C8.71016031 226.27746741 3.16760841 231.90663114 -2.50830078 237.47143555 C-5.44316588 240.36548464 -8.27651652 243.28025569 -10.93896484 246.42797852 C-16.22644308 252.50040323 -21.95060224 258.15621207 -27.625 263.86328125 C-28.22871429 264.47107107 -28.83242859 265.07886089 -29.45443726 265.70506859 C-32.65238255 268.92376079 -35.85351659 272.13924362 -39.05712891 275.35229492 C-42.32520756 278.63139764 -45.58143276 281.92201027 -48.83508301 285.21542072 C-51.37487116 287.78164363 -53.9237829 290.33866441 -56.47503662 292.89348412 C-57.67742246 294.10066897 -58.87649889 295.31116141 -60.07183838 296.52532387 C-87.76707122 324.62929217 -122.95701161 340.88354521 -162.6875 341.3125 C-199.37199346 341.16744607 -234.74278652 327.23241143 -261.25 301.7890625 C-265.52530803 297.45302566 -269.33288449 292.85625783 -273 288 C-273.88751953 286.83597656 -273.88751953 286.83597656 -274.79296875 285.6484375 C-297.41525131 254.69162978 -305.12260311 216.58147007 -300.3515625 178.796875 C-293.90529178 138.58127054 -270.23057022 110.9520246 -242.25 83.25 C-239.52302582 80.54989256 -236.79958864 77.84628524 -234.078125 75.140625 C-233.47067444 74.54147278 -232.86322388 73.94232056 -232.23736572 73.32501221 C-229.25279274 70.35730296 -226.38986053 67.33909728 -223.64282227 64.14941406 C-219.51813861 59.3779365 -215.09197408 54.92996043 -210.63671875 50.46875 C-209.76352493 49.59222778 -208.89033112 48.71570557 -207.99067688 47.81262207 C-206.15907508 45.9759882 -204.3261437 44.1406794 -202.49194336 42.30664062 C-200.61061894 40.4238422 -198.7314832 38.53917552 -196.85620117 36.65039062 C-194.14217789 33.91816828 -191.42163693 31.19260468 -188.69921875 28.46875 C-187.85654953 27.61889526 -187.01388031 26.76904053 -186.14567566 25.89343262 C-185.36759048 25.11842407 -184.58950531 24.34341553 -183.7878418 23.54492188 C-183.10280075 22.85845581 -182.4177597 22.17198975 -181.71195984 21.46472168 C-180 20 -180 20 -178 20 C-178.14520465 21.6250563 -178.29120869 23.25004117 -178.4375 24.875 C-178.55931641 26.23238281 -178.55931641 26.23238281 -178.68359375 27.6171875 C-178.85741444 29.47556678 -179.03803328 31.33351692 -179.24951172 33.18798828 C-181.88167944 56.94413494 -180.25505025 81.53202631 -173.53833008 104.49560547 C-172.17112255 109.32850114 -171.54648264 113.03676998 -173 118 C-175.2578125 120.80859375 -175.2578125 120.80859375 -178.125 123.4375 C-181.30459413 126.39249676 -184.30495334 129.29866339 -187.1171875 132.60546875 C-190.15106396 136.12807633 -193.372739 139.42362214 -196.6875 142.6796875 C-197.19771698 143.18200394 -197.70793396 143.68432037 -198.23361206 144.20185852 C-200.35149738 146.28356194 -202.47205558 148.36233734 -204.60253906 150.43115234 C-220.32197501 165.72170117 -230.64473282 182.34506819 -231.4375 204.875 C-230.91815794 224.22049169 -222.90183821 240.78517124 -209 254 C-196.15587267 265.6278274 -179.0798958 270.57118091 -162 270 C-143.15688185 268.38962669 -127.70782158 259.42905505 -114.640625 246.06640625 C-113.80714539 245.22963852 -112.97366577 244.39287079 -112.1149292 243.53074646 C-109.48372506 240.88394979 -106.86703164 238.22330199 -104.25 235.5625 C-102.48134358 233.78233353 -100.7118189 232.00302925 -98.94140625 230.22460938 C-97.23620108 228.50597999 -95.53174804 226.78660396 -93.828125 225.06640625 C-93.0456842 224.27657852 -92.26324341 223.48675079 -91.45709229 222.67298889 C-88.0288675 219.18568315 -84.6742479 215.67540812 -81.48144531 211.97045898 C-77.68314158 207.57012853 -73.60018109 203.4920446 -69.46875 199.40625 C-68.67400269 198.61528931 -67.87925537 197.82432861 -67.0604248 197.00939941 C-63.69464452 193.65981427 -60.32288952 190.3162673 -56.95166016 186.97216797 C-54.47609773 184.51479061 -52.00361917 182.05433942 -49.53125 179.59375 C-48.78000854 178.85080688 -48.02876709 178.10786377 -47.25476074 177.34240723 C-42.62194213 172.73091284 -38.247357 167.96748337 -34 163 C-33.14535156 162.02675781 -32.29070312 161.05351562 -31.41015625 160.05078125 C-17.58088221 143.92046327 -9.91752416 127.75580035 -10.82080078 106.29736328 C-12.13464363 89.45368314 -20.43559575 74.57317038 -32.875 63.3125 C-35.08371199 61.42937504 -37.26108382 59.83691612 -39.7265625 58.296875 C-40.64179688 57.72453125 -41.55703125 57.1521875 -42.5 56.5625 C-43.3559375 56.06878906 -44.211875 55.57507813 -45.09375 55.06640625 C-47 53 -47 53 -47.52734375 49.234375 C-47.25250445 44.65635248 -45.52912035 41.47119399 -43.0625 37.6875 C-42.65136963 37.03579834 -42.24023926 36.38409668 -41.81665039 35.71264648 C-35.81094118 26.37642549 -28.62843208 18.45627373 -20.875 10.5625 C-20.205896 9.87551025 -19.53679199 9.18852051 -18.84741211 8.48071289 C-7.70162857 -2.64583245 -7.70162857 -2.64583245 0 0 Z " fill="#000000" transform="translate(301,171)"/>
<path d="M0 0 C2.82313394 2.42096944 5.57450117 4.91439071 8.31323242 7.42993164 C9.03639648 8.0705957 9.75956055 8.71125977 10.50463867 9.37133789 C28.13228024 25.82134996 40.08207181 48.35287135 46.31323242 71.42993164 C46.52061035 72.14777832 46.72798828 72.865625 46.94165039 73.60522461 C56.62948685 108.04490883 50.27006635 146.60487876 33.34106445 177.61352539 C26.31335213 190.0330455 17.29855745 200.76550865 7.09375 210.6640625 C4.33099312 213.35290521 1.7135838 216.09019442 -0.78588867 219.02685547 C-5.07271686 223.9498905 -9.6754203 228.52578982 -14.31176758 233.11743164 C-15.67035889 234.47034302 -15.67035889 234.47034302 -17.05639648 235.85058594 C-20.41598064 239.19598608 -23.7800802 242.53681556 -27.14453125 245.87731934 C-30.45311108 249.16284964 -33.75779239 252.45226955 -37.06176758 255.74243164 C-37.92237793 256.59474365 -38.78298828 257.44705566 -39.66967773 258.32519531 C-44.0171078 262.65506433 -48.19974705 267.05405779 -52.1986084 271.70800781 C-55.43325483 275.45076252 -58.9527645 278.92160743 -62.43676758 282.42993164 C-63.19086914 283.2046582 -63.9449707 283.97938477 -64.72192383 284.77758789 C-65.81053711 285.87393555 -65.81053711 285.87393555 -66.92114258 286.99243164 C-67.57308594 287.6537207 -68.2250293 288.31500977 -68.89672852 288.99633789 C-70.68676758 290.42993164 -70.68676758 290.42993164 -73.68676758 290.42993164 C-73.55399414 289.50696289 -73.4212207 288.58399414 -73.28442383 287.63305664 C-69.50457326 259.7118247 -69.25881027 230.70735274 -78.04418945 203.61816406 C-79.16527607 199.80042115 -79.33203371 197.43058167 -78.68676758 193.42993164 C-73.29527916 185.60529309 -65.41486201 179.0879399 -58.65698242 172.4206543 C-53.30524499 167.1342029 -48.00515183 161.86038142 -43.15551758 156.09912109 C-41.59163116 154.32181201 -39.92389407 152.72438783 -38.18676758 151.11743164 C-26.99695247 140.02797362 -20.5925462 123.8855693 -20.30639648 108.23852539 C-20.34705578 89.34304318 -25.86585903 72.72513309 -39.23461914 58.81860352 C-51.66416203 46.93238294 -68.09977726 40.53303478 -85.18676758 40.05493164 C-106.49764044 40.72492281 -123.42132468 50.48027905 -137.97851562 65.59301758 C-139.63190993 67.37094223 -141.21219723 69.1928276 -142.78833008 71.03930664 C-147.07715076 75.95489432 -151.67844491 80.52878528 -156.31176758 85.11743164 C-157.21749512 86.01937256 -158.12322266 86.92131348 -159.05639648 87.85058594 C-162.41598064 91.19598608 -165.7800802 94.53681556 -169.14453125 97.87731934 C-172.45311108 101.16284964 -175.75779239 104.45226955 -179.06176758 107.74243164 C-179.92237793 108.59474365 -180.78298828 109.44705566 -181.66967773 110.32519531 C-186.00671651 114.64471501 -190.16916254 119.03629979 -194.15826416 123.67880249 C-196.2164789 126.03679515 -198.40966988 128.23134458 -200.64770508 130.41821289 C-201.53200195 131.29026367 -202.41629883 132.16231445 -203.32739258 133.06079102 C-205.14046985 134.8389018 -206.9555543 136.61496839 -208.77270508 138.38891602 C-225.89591682 155.30057645 -239.95100833 173.39587322 -240.81958008 198.22680664 C-240.16989617 216.34152266 -233.06956427 233.95483769 -219.68676758 246.42993164 C-216.90672155 248.58827961 -214.06863938 250.63111087 -211.19067383 252.65649414 C-208.20849677 254.7686757 -205.85862265 256.48241405 -203.68676758 259.42993164 C-203.81516345 265.23342514 -206.69751323 268.92655858 -209.99926758 273.42993164 C-210.5383374 274.1761377 -211.07740723 274.92234375 -211.6328125 275.69116211 C-216.9450275 282.94766171 -222.60299791 289.81061887 -228.68676758 296.42993164 C-229.30551758 297.10991211 -229.92426758 297.78989258 -230.56176758 298.49047852 C-232.51745334 300.61883891 -234.50208603 302.71551923 -236.49926758 304.80493164 C-237.41446167 305.79710693 -237.41446167 305.79710693 -238.34814453 306.80932617 C-241.33386403 309.85471947 -242.95743915 311.28503195 -247.22583008 312.13305664 C-251.43105222 311.27872257 -254.05099874 309.5196278 -257.24926758 306.80493164 C-258.14609253 306.06774902 -258.14609253 306.06774902 -259.06103516 305.31567383 C-288.41818545 280.71260917 -305.78867644 248.50823913 -310.68676758 210.42993164 C-310.92379538 205.49508468 -310.93245814 200.55743731 -310.93676758 195.61743164 C-310.93744232 194.92463104 -310.93811707 194.23183044 -310.93881226 193.51803589 C-310.88869337 161.10517178 -300.44744368 128.93967337 -278.68676758 104.42993164 C-278.08928711 103.74560059 -277.49180664 103.06126953 -276.8762207 102.35620117 C-270.24833536 94.85486175 -263.17642497 87.83830078 -256.06176758 80.80493164 C-253.69153771 78.46162163 -251.32488113 76.11478208 -248.96020508 73.76586914 C-248.43397552 73.24793793 -247.90774597 72.73000671 -247.36557007 72.19638062 C-244.58737191 69.436142 -241.94910112 66.61000437 -239.39624023 63.6394043 C-235.182555 58.77317288 -230.63343689 54.27001914 -226.06176758 49.74243164 C-225.15604004 48.84049072 -224.2503125 47.9385498 -223.31713867 47.00927734 C-219.95755452 43.6638772 -216.59345495 40.32304772 -213.22900391 36.98254395 C-209.92042407 33.69701364 -206.61574277 30.40759374 -203.31176758 27.11743164 C-202.45115723 26.26511963 -201.59054687 25.41280762 -200.70385742 24.53466797 C-196.33336818 20.18183292 -192.11654479 15.76666699 -188.11195374 11.07357788 C-142.09314544 -41.9992371 -52.26926597 -43.49478523 0 0 Z " fill="#000000" transform="translate(461.686767578125,30.570068359375)"/>
</svg>
